PathFileType	4	(X/Y/Z)	s01c0301.trc
DataRate	CameraRate	NumFrames	NumMarkers	Units	OrigDataRate	OrigDataStartFrame	OrigNumFrames
200	200	7	48	mm	200	250	2000
Frame#	Time	racr			lacr			c7			jug			rlel			rdr			llel			ldr			s2			lic			ric			lasi			rasi			rpsi			lpsi			rgt			lgt			rth1			rth2			rth3			rth4			rlfc			rsh1			rsh2			rsh3			rsh4			rlmal			rmmal			rcal			rtoe			rmt5			lth1			lth2			lth4			lth3			llfc			lsh1			lsh2			lsh3			lsh4			llmal			lmmal			lcal			ltoe			lmt5			SBIKE			LBIKE			RBIKE			
		X1	Y1	Z1	X2	Y2	Z2	X3	Y3	Z3	X4	Y4	Z4	X5	Y5	Z5	X6	Y6	Z6	X7	Y7	Z7	X8	Y8	Z8	X9	Y9	Z9	X10	Y10	Z10	X11	Y11	Z11	X12	Y12	Z12	X13	Y13	Z13	X14	Y14	Z14	X15	Y15	Z15	X16	Y16	Z16	X17	Y17	Z17	X18	Y18	Z18	X19	Y19	Z19	X20	Y20	Z20	X21	Y21	Z21	X22	Y22	Z22	X23	Y23	Z23	X24	Y24	Z24	X25	Y25	Z25	X26	Y26	Z26	X27	Y27	Z27	X28	Y28	Z28	X29	Y29	Z29	X30	Y30	Z30	X31	Y31	Z31	X32	Y32	Z32	X33	Y33	Z33	X34	Y34	Z34	X35	Y35	Z35	X36	Y36	Z36	X37	Y37	Z37	X38	Y38	Z38	X39	Y39	Z39	X40	Y40	Z40	X41	Y41	Z41	X42	Y42	Z42	X43	Y43	Z43	X44	Y44	Z44	X45	Y45	Z45	X46	Y46	Z46	X47	Y47	Z47	X48	Y48	Z48	
250	1.2500	518.837585	1345.694946	-103.967621	503.999176	1354.397827	-401.596527	440.132324	1416.085571	-245.226746	469.919342	1253.676270	-254.618088	569.944275	1068.923950	-3.373791	721.156250	856.035217	-60.824867	563.365112	1087.215332	-519.278320	720.759399	888.000488	-462.174622	-82.492836	1186.889160	-222.569290	94.138718	1193.306274	-394.719696	88.793205	1162.592407	-77.822731	89.970055	1137.123901	-375.740417	103.205841	1113.579468	-100.205528	-43.651711	1215.885498	-169.293900	-51.830589	1231.485474	-273.315125	18.138325	1047.769287	-48.509853	30.552189	1087.156128	-432.964203	106.140816	941.682373	-39.512775	163.534302	882.576599	-48.737740	220.618729	814.182800	-65.015465	203.550613	918.895691	-61.276661	257.961029	712.641724	-95.393272	182.886078	621.422791	-62.225986	138.758438	549.109497	-66.578278	84.397636	479.089294	-78.255081	175.771317	526.519592	-108.718002	3.235867	376.324860	-98.368591	49.852188	377.823120	-177.596481	-46.843067	362.063782	-157.926270	195.400299	237.282089	-132.184662	85.553383	252.746902	-70.437950	123.400978	998.835449	-427.504120	207.672424	972.258057	-420.173157	224.729980	1023.510193	-410.086212	284.656189	938.825012	-401.274292	375.610565	864.809143	-373.450348	329.272858	764.962219	-413.434601	310.302673	679.903992	-412.294617	289.292053	596.898987	-405.484558	362.570679	669.524109	-381.900909	254.843170	474.412872	-400.820435	280.980988	481.711121	-313.180206	205.370941	428.748322	-362.442657	482.716644	442.646942	-371.334259	380.954163	409.480804	-438.332703	-222.904739	893.047913	-248.985657	-12.170818	84.595261	-453.704865	-20.327391	80.737877	-53.707146	
251	1.2550	519.896790	1345.487671	-104.352280	504.615997	1353.225098	-400.844879	441.356323	1416.320435	-245.446915	470.034882	1253.501465	-254.475784	570.299316	1068.778809	-3.546763	721.211548	855.714233	-60.878719	559.604553	1084.742432	-520.437195	719.911316	887.956848	-461.914551	-82.178566	1188.378662	-222.190887	94.641098	1193.894287	-394.138580	88.906754	1164.094971	-77.443916	91.016388	1138.143311	-375.349701	103.165443	1114.775757	-99.624817	-43.584938	1217.416260	-168.721832	-51.440006	1232.949219	-273.035095	18.329222	1049.312500	-47.957214	31.000950	1088.561157	-432.490051	106.495224	943.661865	-39.167973	163.842834	884.458496	-48.325222	220.854813	815.931519	-64.503990	203.805222	920.708130	-61.260201	257.973480	714.141235	-94.757500	182.951019	622.777893	-61.689434	138.884125	550.531494	-66.035423	84.573044	480.357330	-77.803070	175.927567	527.992859	-108.156250	3.259442	377.725952	-98.171165	49.966179	379.139465	-177.301071	-46.726696	363.578461	-157.748291	195.022034	237.695206	-132.280930	85.318466	253.568832	-70.401337	123.429100	999.863831	-427.003967	207.569473	972.965027	-419.426056	224.699142	1024.035156	-409.234680	284.297180	938.862976	-400.621033	374.994507	864.155945	-372.560944	329.020447	764.205505	-412.825592	310.282501	679.026428	-411.823212	289.443268	596.041626	-405.260742	362.512207	668.757751	-381.331482	255.186737	473.609375	-400.863922	281.291656	480.747772	-313.233154	205.759506	427.935669	-362.557129	483.140076	441.726196	-371.402161	381.431458	408.501556	-438.443695	-222.908493	893.062195	-249.072678	-12.189542	84.571167	-453.716064	-20.336271	80.757011	-53.714607	
252	1.2600	520.988220	1345.269775	-104.653381	505.246674	1352.043457	-400.247803	442.663910	1416.496704	-245.525452	470.273193	1253.348633	-254.241974	570.717224	1068.457642	-3.571020	720.983582	854.955872	-61.370461	555.451477	1082.371582	-521.871643	719.048462	888.084656	-462.023041	-81.764946	1189.831909	-221.969101	95.448486	1194.587524	-393.573395	89.081131	1165.337524	-76.945236	91.880219	1139.555298	-375.069397	103.167587	1115.939819	-99.163353	-43.336792	1218.874512	-168.297821	-50.910625	1234.422607	-272.757965	18.486876	1050.777100	-47.463032	31.695503	1089.859497	-432.042694	106.868500	945.469177	-38.761429	164.213531	886.235718	-47.908878	221.213837	817.645203	-63.886158	204.109711	922.398560	-61.251362	257.994781	715.580200	-94.041656	182.996719	624.072754	-61.057758	138.910309	551.790771	-65.505005	84.608116	481.784973	-77.345619	176.047882	529.395508	-107.645073	3.153902	379.059448	-97.972740	49.912441	380.447601	-176.956406	-46.778423	365.008575	-157.563751	194.597443	238.335129	-132.380508	85.008133	254.465195	-70.387527	123.477768	1000.868896	-426.574371	207.498993	973.453003	-418.813782	224.896027	1024.446899	-408.570892	283.961151	938.871826	-399.859894	374.408661	863.510132	-371.805115	328.863190	763.339294	-412.393829	310.340546	678.351807	-411.583923	289.671844	595.138733	-405.164215	362.502838	668.007446	-380.971191	255.608261	472.724152	-401.089020	281.643280	479.715607	-313.378754	206.281738	426.957123	-362.809021	483.811798	440.705170	-371.459503	381.995270	407.477722	-438.510712	-222.887115	893.062073	-249.143799	-12.207976	84.566971	-453.745514	-20.329626	80.755745	-53.728809	
253	1.2650	522.052551	1344.977905	-104.837151	505.895630	1350.876099	-399.772705	443.931702	1416.627563	-245.514160	470.565277	1253.229370	-253.901917	570.938354	1068.097290	-3.572349	720.898071	854.600708	-61.528679	550.606079	1080.002563	-523.542358	718.201843	888.264771	-462.158264	-81.326614	1191.226074	-221.825302	96.350647	1195.237183	-392.932220	89.425156	1166.557617	-76.403183	92.745033	1140.925293	-374.786652	103.201416	1116.930542	-98.726921	-42.965729	1220.250122	-167.993042	-50.347057	1235.845703	-272.597443	18.650272	1052.202393	-47.061157	32.523224	1091.243164	-431.639587	107.453545	947.357483	-37.957317	164.660431	887.996948	-47.460049	221.629059	819.324341	-63.301815	204.414139	924.110657	-61.181313	258.035980	716.992981	-93.320030	183.105591	625.409424	-60.347973	138.950348	553.129578	-64.947304	84.530441	483.034637	-77.000839	176.062897	530.604492	-107.105286	2.846938	380.469513	-97.812943	49.817448	381.697510	-176.600845	-46.975655	366.358643	-157.375259	194.218063	239.036682	-132.442459	84.655487	255.339386	-70.374695	123.708290	1001.788574	-426.223663	207.564758	973.842896	-418.267670	225.280304	1024.639771	-407.825287	283.685974	938.735229	-399.244843	373.926117	862.785706	-371.111176	328.718475	762.597778	-412.090302	310.452423	677.388367	-411.362030	289.967499	594.279602	-405.159058	362.547974	667.293091	-380.731323	256.046021	471.691528	-401.286957	282.034576	478.682495	-313.605225	206.826630	426.065613	-363.183075	484.427185	439.449463	-371.515198	382.638489	406.471008	-438.676697	-222.839691	893.076355	-249.257904	-12.213476	84.545738	-453.760956	-20.341579	80.753891	-53.738235	
254	1.2700	523.159058	1344.680420	-104.856216	506.415222	1349.951172	-399.447662	445.204681	1416.724121	-245.380875	471.056335	1253.072876	-253.410477	571.131409	1067.635376	-3.478791	720.801025	854.240051	-61.747292	544.713257	1077.355103	-525.142456	717.504822	888.616089	-462.389740	-80.723297	1192.617432	-221.715027	97.570374	1196.116455	-392.237274	89.759659	1167.469482	-76.000626	93.611847	1142.254639	-374.502228	103.416527	1117.948242	-98.291138	-42.529900	1221.563110	-167.699875	-49.610077	1237.229614	-272.506683	18.849480	1053.574585	-46.683636	33.544018	1092.543091	-431.277802	107.960678	948.963867	-37.569359	165.128937	889.638062	-47.079239	222.132477	821.029236	-62.585403	204.846436	925.805908	-61.070934	258.080200	718.232849	-92.520271	183.142685	626.537659	-59.709267	138.837997	554.378052	-64.417198	84.362709	484.546173	-76.532570	175.972870	531.907166	-106.458778	2.571026	381.783966	-97.620277	49.417435	383.179718	-176.188293	-47.165421	367.716278	-157.135422	193.798874	239.848053	-132.499191	84.216194	256.308655	-70.337410	124.130226	1002.655701	-425.905640	207.761490	974.109680	-417.822144	225.751907	1024.753662	-407.273224	283.593506	938.448547	-398.673157	373.508209	862.036560	-370.575836	328.687622	761.720520	-411.801056	310.648621	676.598511	-411.272491	290.395782	593.348694	-405.182587	362.705078	666.477478	-380.540497	256.711609	470.785583	-401.641968	282.558228	477.704590	-313.792145	207.390106	425.180481	-363.528320	485.036865	438.281219	-371.551086	383.284393	405.276978	-438.821960	-222.784592	893.080688	-249.363968	-12.225697	84.511597	-453.776245	-20.330065	80.751724	-53.741653	
255	1.2750	524.275635	1344.308228	-104.822876	506.952332	1349.169800	-399.204010	446.360565	1416.788574	-245.200195	471.600189	1253.031860	-252.844086	571.317871	1067.238525	-3.205160	720.255737	853.595886	-62.283871	538.380920	1074.648438	-527.183899	716.684753	888.763855	-462.566437	-80.103050	1193.935547	-221.664703	98.818771	1196.994263	-391.449219	90.104080	1168.344604	-75.517891	94.481689	1143.544434	-374.216888	103.705795	1118.833496	-97.860207	-42.058899	1222.841187	-167.405426	-48.845829	1238.556763	-272.330811	19.088343	1054.890869	-46.367149	34.688152	1093.933594	-430.973724	108.499969	950.647400	-37.088482	165.683395	891.258972	-46.668934	222.650070	822.597839	-62.009830	205.295395	927.388794	-60.938896	258.221771	719.433777	-91.680367	183.167908	627.782715	-59.077934	138.756165	555.718140	-63.842228	84.068542	485.976532	-76.071884	175.905487	533.049011	-105.778824	2.169024	383.072266	-97.462677	49.236481	384.377289	-175.837280	-47.405590	369.173553	-156.995316	193.246262	240.645767	-132.625671	83.796074	257.198639	-70.362556	124.707375	1003.419983	-425.651093	208.041443	974.258728	-417.353973	226.422318	1024.768188	-406.711243	283.602722	938.077576	-398.137451	373.211853	861.316895	-370.087219	328.782318	760.856934	-411.611969	310.932770	675.665466	-411.247498	290.897125	592.362366	-405.309570	362.974030	665.730164	-380.443390	257.409149	469.895386	-402.041199	283.137939	476.583771	-314.083679	208.032242	424.236359	-363.887238	485.743286	437.026459	-371.669159	383.979645	404.108276	-438.992249	-222.708862	893.090271	-249.450500	-12.215107	84.481453	-453.789185	-20.336271	80.738220	-53.764950	
256	1.2800	525.434509	1343.929810	-104.734283	507.327545	1348.596924	-398.996857	447.409943	1416.856445	-244.851349	472.269714	1253.034424	-252.213699	571.813782	1066.765869	-2.841671	720.209167	853.250488	-62.333702	533.409912	1072.306763	-527.909302	716.166382	889.073914	-462.765594	-79.428406	1195.191162	-221.677078	100.053154	1198.125610	-390.599213	90.476746	1169.033081	-75.038872	95.355560	1144.795776	-373.931366	103.945984	1119.678345	-97.587921	-41.420654	1223.925537	-167.191696	-48.002548	1239.853638	-272.235748	19.340975	1056.119019	-46.110146	35.952858	1095.219727	-430.629395	109.044266	952.120239	-36.682983	166.223801	892.759583	-46.324364	223.308548	824.073425	-61.459511	205.760849	928.751465	-60.859550	258.384979	720.471191	-90.914421	183.269592	628.875916	-58.419384	138.618683	556.901733	-63.243774	83.872963	487.266144	-75.630913	175.917419	534.244202	-105.139549	1.909306	384.461517	-97.280006	48.956844	385.695679	-175.630798	-47.668537	370.552765	-156.740112	192.720886	241.492676	-132.756500	83.362427	258.276337	-70.358681	125.342163	1004.097412	-425.462708	208.493607	974.382629	-416.985016	227.176651	1024.798950	-406.280426	283.779114	937.702454	-397.666504	373.067810	860.588562	-369.653076	328.613403	759.695129	-411.312347	311.333038	674.789185	-411.178162	291.540710	591.472351	-405.362000	363.329254	664.902466	-380.287445	258.077026	468.850067	-402.240204	283.680542	475.702698	-314.394928	208.674469	423.478882	-364.217651	486.434875	435.589630	-371.679230	384.652679	402.964020	-439.116943	-222.643539	893.096680	-249.528931	-12.220511	84.465599	-453.786346	-20.339680	80.739502	-53.783897	
